<svg width="24" height="24" viewBox="0 0 24 24" fill="none" xmlns="http://www.w3.org/2000/svg">
<g clip-path="url(#clip0)">
<path d="M9.66667 11.2167C10.9917 10.5833 11.6833 9.62501 11.6833 8.13334C11.6833 5.19167 9.49167 4.47501 6.9625 4.47501H0V19.2417H7.15833C9.84167 19.2417 12.3625 17.9542 12.3625 14.9542C12.3625 13.1 11.4833 11.7292 9.66667 11.2167ZM3.24583 6.99584H6.29167C7.4625 6.99584 8.51667 7.32501 8.51667 8.68334C8.51667 9.93751 7.69583 10.4417 6.5375 10.4417H3.24583V6.99584ZM6.71667 16.7333H3.24583V12.6667H6.78333C8.2125 12.6667 9.11667 13.2625 9.11667 14.775C9.11667 16.2667 8.0375 16.7333 6.71667 16.7333ZM21.6542 6.70417H15.6667V5.25001H21.6542V6.70417ZM24 14.05C24 10.8875 22.15 8.25001 18.7958 8.25001C15.5375 8.25001 13.325 10.7 13.325 13.9083C13.325 17.2375 15.4208 19.5208 18.7958 19.5208C21.35 19.5208 23.0042 18.3708 23.8 15.925H21.2083C20.9292 16.8375 19.7792 17.3208 18.8875 17.3208C17.1667 17.3208 16.2625 16.3125 16.2625 14.6H23.975C23.9875 14.425 24 14.2375 24 14.05ZM16.2667 12.75C16.3625 11.3458 17.2958 10.4667 18.7042 10.4667C20.1792 10.4667 20.9208 11.3333 21.0458 12.75H16.2667Z" fill="black"/>
</g>
<defs>
<clipPath id="clip0">
<rect width="24" height="24" fill="white"/>
</clipPath>
</defs>
</svg>
