<svg width="24" height="24" viewBox="0 0 24 24" fill="none" xmlns="http://www.w3.org/2000/svg">
<g clip-path="url(#clip0)">
<path d="M23.3156 16.9597L18.0655 14.7097C17.8412 14.6141 17.5919 14.5939 17.3552 14.6523C17.1185 14.7106 16.9071 14.8443 16.753 15.0331L14.4279 17.8738C10.779 16.1533 7.84242 13.2168 6.12198 9.56786L8.96266 7.24282C9.15189 7.08891 9.28582 6.87755 9.34418 6.64072C9.40254 6.40389 9.38215 6.1545 9.2861 5.93029L7.03606 0.680201C6.93064 0.438513 6.7442 0.241183 6.50887 0.122237C6.27355 0.00329148 6.0041 -0.0298149 5.74698 0.028627L0.87189 1.15365C0.623997 1.21089 0.402825 1.35047 0.244474 1.5496C0.0861227 1.74873 -5.71046e-05 1.99566 2.8389e-08 2.25007C2.8389e-08 14.2737 9.74549 24.0005 21.7504 24.0005C22.0049 24.0006 22.2519 23.9145 22.4511 23.7561C22.6504 23.5978 22.79 23.3765 22.8473 23.1286L23.9723 18.2535C24.0304 17.9951 23.9966 17.7246 23.8767 17.4884C23.7568 17.2523 23.5584 17.0653 23.3156 16.9597Z" fill="black"/>
</g>
<defs>
<clipPath id="clip0">
<rect width="24" height="24" fill="white"/>
</clipPath>
</defs>
</svg>
